<?xml version="1.0" standalone="no"?>
<!DOCTYPE svg PUBLIC "-//W3C//DTD SVG 20010904//EN"
 "http://www.w3.org/TR/2001/REC-SVG-20010904/DTD/svg10.dtd">
<svg version="1.0" xmlns="http://www.w3.org/2000/svg"
 width="700.000000pt" height="700.000000pt" viewBox="0 0 700.000000 700.000000"
 preserveAspectRatio="xMidYMid meet">
<metadata>
Created by potrace 1.11, written by Peter Selinger 2001-2013
</metadata>
<g transform="translate(0.000000,700.000000) scale(0.100000,-0.100000)"
fill="#000000" stroke="none">
<path d="M3336 6618 c-13 -21 -84 -144 -268 -463 -41 -71 -234 -404 -428 -740
-194 -335 -364 -630 -377 -654 -14 -24 -60 -103 -102 -175 -43 -73 -81 -138
-85 -146 -4 -8 -12 -24 -19 -35 -20 -33 -280 -483 -303 -523 -11 -20 -203
-352 -426 -738 -223 -385 -417 -722 -432 -748 -14 -26 -32 -57 -40 -69 -8 -12
-27 -45 -43 -72 -32 -57 -149 -261 -176 -306 -9 -17 -68 -119 -131 -227 -62
-108 -172 -299 -244 -424 -73 -125 -135 -234 -138 -242 -3 -9 70 29 163 83 92
53 188 109 213 123 25 14 171 99 325 188 154 89 296 172 315 183 19 10 99 57
178 103 79 46 147 84 152 84 6 0 10 5 10 10 0 6 4 10 9 10 7 0 520 295 1051
605 69 40 141 82 160 92 19 11 76 44 125 73 50 29 108 63 130 75 22 13 121 70
220 127 l179 105 1 1861 c0 1024 -1 1862 -2 1862 -2 0 -9 -10 -17 -22z"/>
<path d="M3645 4778 l1 -1861 584 -340 c322 -187 603 -349 625 -362 38 -21
412 -238 1225 -710 206 -120 400 -231 430 -248 30 -16 60 -33 65 -37 15 -12
307 -180 312 -180 3 0 -5 13 -16 29 -12 16 -21 31 -21 34 0 2 -46 83 -101 178
-56 96 -115 199 -132 229 -16 30 -38 66 -47 80 -9 14 -31 52 -50 85 -43 78
-51 92 -155 270 -48 83 -99 170 -113 195 -14 25 -114 198 -222 385 -236 407
-386 667 -413 715 -11 19 -57 99 -103 178 -46 79 -84 147 -84 152 0 6 -4 10
-10 10 -5 0 -10 4 -10 9 0 6 -82 151 -182 323 -99 172 -215 372 -256 443 -41
72 -217 375 -390 675 -173 300 -324 561 -335 580 -10 19 -34 60 -52 90 -33 57
-98 169 -132 230 -28 50 -82 142 -92 160 -5 8 -78 133 -161 277 -83 145 -154
265 -158 267 -4 2 -7 -833 -7 -1856z"/>
<path d="M3430 2621 c-36 -21 -272 -158 -525 -303 -253 -146 -476 -275 -495
-287 -19 -11 -48 -28 -65 -37 -16 -9 -158 -91 -315 -182 -157 -91 -310 -178
-340 -195 -30 -16 -62 -36 -71 -43 -8 -8 -18 -14 -22 -14 -3 0 -30 -14 -59
-31 -29 -17 -185 -108 -346 -201 -161 -93 -310 -179 -331 -191 -21 -12 -119
-68 -217 -125 -99 -57 -186 -107 -194 -112 -24 -15 -122 -71 -160 -91 l-35
-19 55 -1 c339 -3 6413 0 6417 4 3 3 -11 14 -30 24 -20 10 -86 47 -148 83 -62
36 -130 76 -153 89 -23 13 -156 90 -296 171 -140 81 -271 156 -290 167 -19 11
-150 87 -290 168 -831 480 -1039 600 -1070 618 -19 11 -75 43 -125 72 -315
183 -806 466 -817 470 -7 3 -42 -12 -78 -34z"/>
</g>
</svg>
