<?xml version="1.0" encoding="utf-8"?>
<!-- Generator: Adobe Illustrator 22.1.0, SVG Export Plug-In . SVG Version: 6.00 Build 0)  -->
<svg version="1.1" xmlns="http://www.w3.org/2000/svg" xmlns:xlink="http://www.w3.org/1999/xlink" x="0px" y="0px"
	 viewBox="0 0 120 120" style="enable-background:new 0 0 120 120;" xml:space="preserve">
<style type="text/css">
	.st0{display:none;}
	.st1{display:inline;}
	.st2{fill:#D8D8D8;}
	.st3{fill:#FFFFFF;}
	.st4{fill:none;stroke:#000000;stroke-miterlimit:10;}
	.st5{display:inline;fill:none;stroke:#000000;stroke-miterlimit:10;}
	.st6{display:inline;opacity:0.32;}
	.st7{display:inline;opacity:0.18;}
	.st8{display:inline;opacity:0.47;}
	.st9{display:inline;opacity:0.26;}
	.st10{display:inline;opacity:0.12;}
	.st11{display:inline;opacity:0.4;}
	.st12{display:inline;opacity:0.62;}
	.st13{display:inline;opacity:0.55;}
	.st14{fill:#2D0101;}
	.st15{fill:#B72121;}
	.st16{fill:#A81B1B;}
	.st17{fill:#9E1212;}
	.st18{fill:#8C1010;}
	.st19{fill:#7F0F0F;}
	.st20{fill:#720F0F;}
	.st21{fill:#680F0F;}
	.st22{fill:#C62828;}
</style>
<g id="circle_guides" class="st0">
	<g class="st1">
		<circle class="st2" cx="60" cy="60" r="60"/>
	</g>
</g>
<g id="lines" class="st0">
	<g class="st1">
		<rect x="18.1" y="18.1" transform="matrix(0.7071 -0.7071 0.7071 0.7071 -24.8528 60)" class="st3" width="83.9" height="83.9"/>
		<path d="M60,1.4L118.6,60L60,118.6L1.4,60L60,1.4 M60,0L0,60l60,60l60-60L60,0L60,0z"/>
	</g>
	<polyline class="st5" points="110,70 76.3,50 43.7,70 10,50 	"/>
	<line class="st5" x1="43.7" y1="70" x2="60" y2="120"/>
	<line class="st5" x1="76.3" y1="50" x2="60" y2="0"/>
</g>
<g id="shapes" class="st0">
	<polygon class="st7" points="76.3,50 43.7,70 10,50 60,0 	"/>
	<polygon class="st11" points="110,70 120,60 60,0 76.3,50 	"/>
	<polygon class="st8" points="60,120 43.7,70 76.3,50 110,70 	"/>
	<polygon class="st6" points="0,60 10,50 43.7,70 60,120 	"/>
</g>
<g id="backgrounds" class="st0">
	<g class="st1">
		<rect x="17.6" y="17.6" transform="matrix(0.7071 -0.7071 0.7071 0.7071 -24.8528 60)" class="st14" width="84.9" height="84.9"/>
	</g>
</g>
<g id="shapes_copy" class="st0">
	<g class="st1">
		<polygon class="st15" points="76.3,50 43.7,70 10,50 60,0 		"/>
	</g>
	<g class="st1">
	</g>
	<g class="st1">
	</g>
	<g class="st1">
		<polygon class="st18" points="0,60 10,50 43.7,70 60,120 		"/>
	</g>
	<g class="st1">
		<polygon class="st19" points="110,70 120,60 60,0 76.3,50 		"/>
	</g>
	<g class="st1">
		<polygon class="st20" points="60,120 43.7,70 76.3,50 110,70 		"/>
	</g>
	<g class="st1">
	</g>
	<g class="st1">
	</g>
</g>
<g id="shapes_copy_2">
	<polygon class="st15" points="11.6,49.8 59.6,1.9 75.1,49.6 43.7,68.8 	"/>
	<polygon class="st18" points="1.4,60 10.2,51.3 42.9,70.7 57.8,116.3 	"/>
	<polygon class="st19" points="77.1,49.3 62.2,3.7 118.6,60 109.8,68.7 	"/>
	<polygon class="st20" points="44.9,70.4 76.3,51.2 108.4,70.2 60.4,118.1 	"/>
</g>
</svg>
