<?xml version="1.0" encoding="utf-8"?>
<!-- Generator: Adobe Illustrator 22.1.0, SVG Export Plug-In . SVG Version: 6.00 Build 0)  -->
<svg version="1.1" xmlns="http://www.w3.org/2000/svg" xmlns:xlink="http://www.w3.org/1999/xlink" x="0px" y="0px"
	 viewBox="0 0 120 120" style="enable-background:new 0 0 120 120;" xml:space="preserve">
<style type="text/css">
	.st0{display:none;}
	.st1{display:inline;}
	.st2{fill:#D8D8D8;}
	.st3{fill:#FFFFFF;}
	.st4{fill:none;stroke:#000000;stroke-miterlimit:10;}
	.st5{display:inline;fill:none;stroke:#000000;stroke-miterlimit:10;}
	.st6{display:inline;opacity:0.32;}
	.st7{display:inline;opacity:0.18;}
	.st8{display:inline;opacity:0.47;}
	.st9{display:inline;opacity:0.26;}
	.st10{display:inline;opacity:0.12;}
	.st11{display:inline;opacity:0.4;}
	.st12{display:inline;opacity:0.62;}
	.st13{display:inline;opacity:0.55;}
	.st14{fill:#2D0101;}
	.st15{fill:#B72121;}
	.st16{fill:#A81B1B;}
	.st17{fill:#9E1212;}
	.st18{fill:#8C1010;}
	.st19{fill:#7F0F0F;}
	.st20{fill:#720F0F;}
	.st21{fill:#680F0F;}
	.st22{fill:#C62828;}
</style>
<g id="circle_guides" class="st0">
	<g class="st1">
		<circle class="st2" cx="60" cy="60" r="60"/>
	</g>
</g>
<g id="lines" class="st0">
	<g class="st1">
		<polygon class="st3" points="25,108.1 3.4,78.4 3.4,41.6 25,11.9 60,0.5 95,11.9 116.6,41.6 116.6,78.4 95,108.1 60,119.5 		"/>
		<path d="M60,1.1l34.6,11.3l21.4,29.5v36.4l-21.4,29.5L60,118.9l-34.6-11.3L3.9,78.2V41.8l21.4-29.5L60,1.1 M60,0L24.7,11.5
			l-21.8,30v37.1l21.8,30L60,120l35.3-11.5l21.8-30V41.5l-21.8-30L60,0L60,0z"/>
	</g>
	<polygon class="st5" points="60,27.7 29.3,50 41,86.1 79,86.1 90.7,50 	"/>
	<line class="st5" x1="60" y1="27.7" x2="60" y2="0"/>
	<line class="st5" x1="90.7" y1="50" x2="117.1" y2="41.5"/>
	<line class="st5" x1="79" y1="86.1" x2="95.3" y2="108.5"/>
	<line class="st5" x1="41" y1="86.1" x2="24.7" y2="108.5"/>
	<line class="st5" x1="29.3" y1="50" x2="2.9" y2="41.5"/>
</g>
<g id="shapes" class="st0">
	<polygon class="st9" points="29.3,50 60,27.7 90.7,50 79,86.1 41,86.1 	"/>
	<polygon class="st10" points="2.9,41.5 24.7,11.5 60,0 60,27.7 29.3,50 	"/>
	<polygon class="st9" points="2.9,78.5 2.9,41.5 29.3,50 41,86.1 24.7,108.5 	"/>
	<polygon class="st8" points="60,120 95.3,108.5 79,86.1 41,86.1 24.7,108.5 	"/>
	<polygon class="st13" points="117.1,41.5 90.7,50 79,86.1 95.3,108.5 117.1,78.5 	"/>
	<polygon class="st11" points="95.3,11.5 117.1,41.5 90.7,50 60,27.7 60,0 	"/>
</g>
<g id="backgrounds" class="st0">
	<g class="st1">
		<polygon class="st14" points="60,0 24.7,11.5 2.9,41.5 2.9,78.5 24.7,108.5 60,120 95.3,108.5 117.1,78.5 117.1,41.5 95.3,11.5 		
			"/>
	</g>
</g>
<g id="shapes_copy" class="st0">
	<g class="st1">
		<polygon class="st16" points="29.3,50 60,27.7 90.7,50 79,86.1 41,86.1 		"/>
	</g>
	<g class="st1">
		<polygon class="st17" points="2.9,78.5 2.9,41.5 29.3,50 41,86.1 24.7,108.5 		"/>
	</g>
	<g class="st1">
		<polygon class="st19" points="95.3,11.5 117.1,41.5 90.7,50 60,27.7 60,0 		"/>
	</g>
	<g class="st1">
		<polygon class="st20" points="60,120 95.3,108.5 79,86.1 41,86.1 24.7,108.5 		"/>
	</g>
	<g class="st1">
		<polygon class="st21" points="117.1,41.5 90.7,50 79,86.1 95.3,108.5 117.1,78.5 		"/>
	</g>
	<g class="st1">
		<polygon class="st22" points="2.9,41.5 24.7,11.5 60,0 60,27.7 29.3,50 		"/>
	</g>
</g>
<g id="shapes_copy_2">
	<polygon class="st16" points="41.8,85.1 30.5,50.4 60,29 89.5,50.4 78.2,85.1 	"/>
	<polygon class="st17" points="3.9,78.2 3.9,42.8 28.5,50.8 39.9,85.9 24.7,106.8 	"/>
	<polygon class="st19" points="61,27.2 61,1.4 94.6,12.3 115.4,40.9 90.8,48.9 	"/>
	<polygon class="st20" points="26.4,108 41.6,87.1 78.4,87.1 93.6,108 60,118.9 	"/>
	<polygon class="st21" points="80.1,85.9 91.5,50.8 116.1,42.8 116.1,78.2 95.3,106.8 	"/>
	<polygon class="st22" points="4.6,40.9 25.4,12.3 59,1.4 59,27.2 29.2,48.9 	"/>
</g>
</svg>
