<?xml version="1.0" encoding="utf-8"?>
<!-- Generator: Adobe Illustrator 22.1.0, SVG Export Plug-In . SVG Version: 6.00 Build 0)  -->
<svg version="1.1" xmlns="http://www.w3.org/2000/svg" xmlns:xlink="http://www.w3.org/1999/xlink" x="0px" y="0px"
	 viewBox="0 0 120 120" style="enable-background:new 0 0 120 120;" xml:space="preserve">
<style type="text/css">
	.st0{display:none;}
	.st1{display:inline;}
	.st2{fill:#D8D8D8;}
	.st3{fill:#FFFFFF;}
	.st4{fill:none;stroke:#000000;stroke-miterlimit:10;}
	.st5{display:inline;fill:none;stroke:#000000;stroke-miterlimit:10;}
	.st6{display:inline;opacity:0.32;}
	.st7{display:inline;opacity:0.18;}
	.st8{display:inline;opacity:0.47;}
	.st9{display:inline;opacity:0.26;}
	.st10{display:inline;opacity:0.12;}
	.st11{display:inline;opacity:0.4;}
	.st12{display:inline;opacity:0.62;}
	.st13{display:inline;opacity:0.55;}
	.st14{fill:#2D0101;}
	.st15{fill:#B72121;}
	.st16{fill:#A81B1B;}
	.st17{fill:#9E1212;}
	.st18{fill:#8C1010;}
	.st19{fill:#7F0F0F;}
	.st20{fill:#720F0F;}
	.st21{fill:#680F0F;}
	.st22{fill:#C62828;}
</style>
<g id="circle_guides" class="st0">
	<g class="st1">
		<circle class="st2" cx="60" cy="60" r="60"/>
	</g>
</g>
<g id="lines" class="st0">
	<g class="st1">
		<polygon class="st3" points="8.5,89.7 8.5,30.3 60,0.6 111.5,30.3 111.5,89.7 60,119.4 		"/>
		<path d="M60,1.2l51,29.4v58.8l-51,29.4L9,89.4V30.6L60,1.2 M60,0L8,30v60l52,30l52-30V30L60,0L60,0z"/>
	</g>
	<polygon class="st5" points="60,25 29.7,77.5 90.3,77.5 	"/>
	<polygon class="st5" points="8,30 60,25 112,30 90.3,77.5 60,120 29.7,77.5 	"/>
	<line class="st5" x1="60" y1="0" x2="60" y2="25"/>
	<line class="st5" x1="112" y1="90" x2="90.3" y2="77.5"/>
	<line class="st5" x1="8" y1="90" x2="29.7" y2="77.5"/>
</g>
<g id="shapes" class="st0">
	<polygon class="st10" points="8,30 60,25 60,0 	"/>
	<polygon class="st9" points="8,90 29.7,77.5 8,30 	"/>
	<polygon class="st7" points="60,25 29.7,77.5 8,30 	"/>
	<polygon class="st7" points="112,30 60,25 60,0 	"/>
	<polygon class="st9" points="90.3,77.5 60,25 29.7,77.5 	"/>
	<polygon class="st6" points="112,30 90.3,77.5 60,25 	"/>
	<polygon class="st8" points="112,90 112,30 90.3,77.5 	"/>
	<polygon class="st8" points="60,120 90.3,77.5 29.7,77.5 	"/>
	<polygon class="st11" points="8,90 60,120 29.7,77.5 	"/>
	<polygon class="st12" points="112,90 90.3,77.5 60,120 	"/>
</g>
<g id="backgrounds" class="st0">
	<g class="st1">
		<polygon class="st14" points="8,30 8,90 60,120 112,90 112,30 60,0 		"/>
	</g>
</g>
<g id="shapes_copy" class="st0">
	<g class="st1">
		<polygon class="st15" points="60,25 29.7,77.5 8,30 		"/>
		<polygon class="st15" points="112,30 60,25 60,0 		"/>
	</g>
	<g class="st1">
		<polygon class="st16" points="90.3,77.5 60,25 29.7,77.5 		"/>
	</g>
	<g class="st1">
		<polygon class="st17" points="8,90 29.7,77.5 8,30 		"/>
	</g>
	<g class="st1">
		<polygon class="st18" points="112,30 90.3,77.5 60,25 		"/>
	</g>
	<g class="st1">
		<polygon class="st19" points="8,90 60,120 29.7,77.5 		"/>
	</g>
	<g class="st1">
		<polygon class="st20" points="112,90 112,30 90.3,77.5 		"/>
		<polygon class="st20" points="60,120 90.3,77.5 29.7,77.5 		"/>
	</g>
	<g class="st1">
		<polygon class="st21" points="112,90 90.3,77.5 60,120 		"/>
	</g>
	<g class="st1">
		<polygon class="st22" points="8,30 60,25 60,0 		"/>
	</g>
</g>
<g id="shapes_copy_2">
	<polygon class="st15" points="9.5,30.9 58.2,26.2 29.8,75.3 	"/>
	<polygon class="st15" points="61,24.1 61,1.7 107.5,28.6 	"/>
	<polygon class="st16" points="31.4,76.5 60,27 88.6,76.5 	"/>
	<polygon class="st17" points="9,34.6 28.4,77.1 9,88.3 	"/>
	<polygon class="st18" points="61.8,26.2 110.5,30.9 90.2,75.3 	"/>
	<polygon class="st19" points="10,90 29.4,78.8 56.5,116.8 	"/>
	<polygon class="st20" points="91.6,77.1 111,34.6 111,88.3 	"/>
	<polygon class="st20" points="31.6,78.5 88.4,78.5 60,118.3 	"/>
	<polygon class="st21" points="90.6,78.8 110,90 63.5,116.8 	"/>
	<polygon class="st22" points="59,1.7 59,24.1 12.5,28.6 	"/>
</g>
</svg>
